<svg xmlns="http://www.w3.org/2000/svg" version="1.1" xmlns:xlink="http://www.w3.org/1999/xlink" xmlns:svgjs="http://svgjs.dev/svgjs" width="2000" height="1999" viewBox="0 0 2000 1999"><g transform="matrix(1,0,0,1,-0.431486880466764,-0.4312711370263287)"><svg viewBox="0 0 343 343" data-background-color="#ffffff" preserveAspectRatio="xMidYMid meet" height="1999" width="2000" xmlns="http://www.w3.org/2000/svg" xmlns:xlink="http://www.w3.org/1999/xlink"><g id="tight-bounds" transform="matrix(1,0,0,1,0.0740000000000407,0.07400000000001228)"><svg viewBox="0 0 342.85155851775386 342.85155851775386" height="342.85155851775386" width="342.85155851775386"><g><svg></svg></g><g><svg viewBox="0 0 342.85155851775386 342.85155851775386" height="342.85155851775386" width="342.85155851775386"><g><path d="M0 171.426c0-94.676 76.75-171.426 171.426-171.426 94.676 0 171.426 76.75 171.426 171.426 0 94.676-76.75 171.426-171.426 171.426-94.676 0-171.426-76.75-171.426-171.426zM171.426 337.767c91.868 0 166.342-74.474 166.341-166.341 0-91.868-74.474-166.342-166.341-166.342-91.868 0-166.342 74.474-166.342 166.342 0 91.868 74.474 166.342 166.342 166.341z" data-fill-palette-color="tertiary" fill="#d5f100" stroke="transparent"></path><ellipse rx="164.56874808852186" ry="164.56874808852186" cx="171.42577925887693" cy="171.42577925887693" fill="#d5f100" stroke="transparent" stroke-width="0" fill-opacity="1" data-fill-palette-color="tertiary"></ellipse></g><g transform="matrix(1,0,0,1,64.84655864529837,82.67711743039493)"><svg viewBox="0 0 213.1584412271571 177.497323656964" height="177.497323656964" width="213.1584412271571"><g><svg viewBox="0 0 213.1584412271571 177.497323656964" height="177.497323656964" width="213.1584412271571"><g><svg viewBox="0 0 213.1584412271571 177.497323656964" height="177.497323656964" width="213.1584412271571"><g transform="matrix(1,0,0,1,0,89.72730862275688)"><svg viewBox="0 0 213.1584412271571 87.77001503420712" height="87.77001503420712" width="213.1584412271571"><g id="textblocktransform"><svg viewBox="0 0 213.1584412271571 87.77001503420712" height="87.77001503420712" width="213.1584412271571" id="textblock"><g><svg viewBox="0 0 213.1584412271571 56.37789242902326" height="56.37789242902326" width="213.1584412271571"><g transform="matrix(1,0,0,1,0,0)"><svg width="213.1584412271571" viewBox="4.2 -35.16 174.82000000000002 46.239999999999995" height="56.37789242902326" data-palette-color="#000000"><path d="M26.88-19.95L27.08-19.95Q27.88-21.51 28.74-22.64 29.59-23.78 30.58-24.51 31.57-25.24 32.73-25.6 33.89-25.95 35.35-25.95L35.35-25.95Q38.4-25.95 40.15-24.52 41.89-23.1 42.63-20.36L42.63-20.36Q43.24-18.07 43.24-14.84L43.24-14.84 43.24 0 36.55 0 36.55-16.75Q36.55-17.7 36.39-18.42 36.23-19.14 35.94-19.65L35.94-19.65Q35.52-20.41 34.83-20.74 34.13-21.07 33.2-21.07L33.2-21.07Q32.3-21.07 31.47-20.59 30.64-20.12 29.9-19.38 29.15-18.65 28.52-17.75 27.88-16.85 27.37-15.99L27.37-15.99Q27.39-15.72 27.39-15.45 27.39-15.19 27.39-14.89L27.39-14.89 27.39 0 20.7 0 20.7-16.75Q20.7-17.7 20.54-18.42 20.39-19.14 20.09-19.65L20.09-19.65Q19.68-20.41 18.98-20.74 18.29-21.07 17.36-21.07L17.36-21.07Q16.48-21.07 15.67-20.59 14.87-20.12 14.14-19.38 13.4-18.65 12.77-17.75 12.13-16.85 11.62-15.99L11.62-15.99 11.62 0 4.93 0 4.93-15.65Q4.93-17.07 4.91-18.3 4.88-19.53 4.81-20.62 4.74-21.7 4.59-22.68 4.44-23.66 4.2-24.58L4.2-24.58Q5.79-25 7.36-25.33 8.94-25.66 10.55-25.95L10.55-25.95Q10.72-25.44 10.86-24.94 11.01-24.44 11.11-23.86 11.21-23.29 11.28-22.61 11.35-21.92 11.43-21.04L11.43-21.04 11.74-21.04Q12.52-22.22 13.32-23.13 14.11-24.05 15.01-24.67 15.92-25.29 17.02-25.62 18.12-25.95 19.51-25.95L19.51-25.95Q22.66-25.95 24.43-24.41 26.2-22.88 26.88-19.95L26.88-19.95ZM66.67-25.39L73.41-25.39 73.41-0.2Q73.41 2.66 72.5 4.65 71.58 6.64 69.91 7.89 68.23 9.13 65.9 9.69 63.57 10.25 60.76 10.25L60.76 10.25Q58.59 10.25 56.36 9.88 54.12 9.5 52.22 8.74L52.22 8.74Q52.73 7.52 53.27 6.35 53.81 5.18 54.37 4L54.37 4Q56.13 4.57 57.93 4.97 59.74 5.37 61.42 5.37L61.42 5.37Q61.91 5.37 62.49 5.33 63.06 5.3 63.64 5.15 64.23 5 64.79 4.7 65.35 4.39 65.78 3.87 66.21 3.34 66.48 2.55 66.75 1.76 66.77 0.63L66.77 0.63 66.77-4.32 66.55-4.32Q65.74-3.1 64.88-2.19 64.01-1.27 63.01-0.65 62.01-0.02 60.81 0.28 59.62 0.59 58.15 0.59L58.15 0.59Q55.76 0.59 54.2-0.17 52.63-0.93 51.68-2.34L51.68-2.34Q50.75-3.81 50.36-5.86 49.97-7.91 49.97-10.52L49.97-10.52 49.97-25.39 56.66-25.39 56.66-8.59Q56.66-6.49 57.64-5.4 58.62-4.3 60.32-4.3L60.32-4.3Q61.25-4.3 62.14-4.74 63.03-5.18 63.86-5.88 64.69-6.59 65.4-7.51 66.11-8.42 66.67-9.35L66.67-9.35 66.67-25.39ZM81.95-35.16L88.57-35.16 88.57-22.12 88.69-22.12Q89.4-23.02 90.2-23.74 91.01-24.46 91.95-24.98 92.89-25.49 93.99-25.76 95.09-26.03 96.41-26.03L96.41-26.03Q98.97-26.03 100.73-25.02 102.49-24.02 103.57-22.34 104.66-20.65 105.13-18.42 105.61-16.19 105.61-13.75L105.61-13.75Q105.61-10.42 104.85-7.79 104.1-5.15 102.39-3.31 100.68-1.46 97.91-0.48 95.14 0.51 91.08 0.51L91.08 0.51Q88.59 0.51 86.38 0.28 84.17 0.05 81.95-0.27L81.95-0.27 81.95-35.16ZM88.57-16.46L88.57-4.83Q89.57-4.61 90.52-4.49 91.47-4.37 92.35-4.37L92.35-4.37Q93.77-4.37 94.98-4.74 96.19-5.1 97.07-5.96 97.94-6.81 98.43-8.23 98.92-9.64 98.92-11.77L98.92-11.77Q98.92-13.82 98.75-15.54 98.58-17.26 98.07-18.51 97.55-19.75 96.6-20.45 95.65-21.14 94.09-21.14L94.09-21.14Q93.11-21.14 92.34-20.79 91.57-20.43 90.91-19.81 90.25-19.19 89.68-18.33 89.11-17.48 88.57-16.46L88.57-16.46ZM117.16-35.16L117.16-9.96Q117.16-7.93 117.19-6.57 117.23-5.2 117.33-4.17L117.33-4.17Q117.38-3.64 117.42-3.23 117.47-2.83 117.52-2.45 117.57-2.08 117.66-1.7 117.74-1.32 117.86-0.85L117.86-0.85Q116.25-0.37 114.64-0.01 113.03 0.34 111.35 0.59L111.35 0.59Q110.98-0.51 110.72-1.75 110.47-2.98 110.47-4.44L110.47-4.44 110.47-35.16 117.16-35.16ZM135.17-25.95L135.17-25.95Q138.37-25.95 140.71-24.95 143.06-23.95 144.58-22.18 146.11-20.41 146.85-17.98 147.6-15.55 147.6-12.7L147.6-12.7Q147.6-9.84 146.85-7.4 146.11-4.96 144.58-3.19 143.06-1.42 140.71-0.42 138.37 0.59 135.17 0.59L135.17 0.59Q131.97 0.59 129.63-0.42 127.28-1.42 125.76-3.19 124.23-4.96 123.49-7.4 122.74-9.84 122.74-12.7L122.74-12.7Q122.74-15.55 123.49-17.98 124.23-20.41 125.76-22.18 127.28-23.95 129.63-24.95 131.97-25.95 135.17-25.95ZM135.17-21.17L135.17-21.17Q133.41-21.17 132.29-20.51 131.17-19.85 130.53-18.7 129.9-17.55 129.67-16 129.43-14.45 129.43-12.7L129.43-12.7Q129.43-10.91 129.67-9.36 129.9-7.81 130.53-6.67 131.17-5.52 132.29-4.86 133.41-4.2 135.17-4.2L135.17-4.2Q136.93-4.2 138.05-4.86 139.17-5.52 139.81-6.67 140.44-7.81 140.68-9.36 140.91-10.91 140.91-12.7L140.91-12.7Q140.91-14.45 140.68-16 140.44-17.55 139.81-18.7 139.17-19.85 138.05-20.51 136.93-21.17 135.17-21.17ZM168.08-25.42L170.35-25.42Q171.52-25.42 172.35-25.44 173.18-25.46 173.94-25.56 174.69-25.66 175.52-25.85 176.35-26.05 177.53-26.37L177.53-26.37Q177.89-25.24 178.28-24.04 178.67-22.83 179.02-21.63L179.02-21.63Q178.21-21.34 177.54-21.14 176.87-20.95 176.24-20.81 175.62-20.68 175.02-20.62 174.43-20.56 173.74-20.53L173.74-20.53Q174.21-19.48 174.38-18.47 174.55-17.46 174.55-16.33L174.55-16.33Q174.55-13.99 173.84-12.24 173.13-10.5 171.81-9.28L171.81-9.28Q171.01-8.54 169.98-8.06 168.96-7.57 167.83-7.26 166.71-6.96 165.55-6.84 164.39-6.71 163.32-6.71L163.32-6.71Q161.34-6.71 159.7-7.01L159.7-7.01Q159.29-5.83 159.29-5.15L159.29-5.15Q159.29-4.69 159.47-4.36 159.66-4.03 160.07-3.78L160.07-3.78Q160.71-3.44 161.6-3.34 162.49-3.25 163.56-3.25L163.56-3.25Q163.88-3.25 164.38-3.25 164.88-3.25 165.42-3.26 165.95-3.27 166.45-3.27 166.96-3.27 167.32-3.27L167.32-3.27Q169.27-3.27 170.86-2.92 172.45-2.56 173.58-1.78 174.72-1 175.34 0.29 175.96 1.59 175.96 3.44L175.96 3.44Q175.96 5.57 174.93 7.02 173.89 8.47 172.18 9.38 170.47 10.28 168.27 10.68 166.08 11.08 163.73 11.08L163.73 11.08Q162.05 11.08 160.38 10.9 158.7 10.72 157.14 10.42L157.14 10.42Q155.92 10.18 154.83 9.88 153.75 9.57 152.82 9.23L152.82 9.23Q153.14 8.47 153.76 7.3 154.38 6.13 155.14 4.79L155.14 4.79Q157.63 5.66 159.88 6.08 162.12 6.49 163.98 6.49L163.98 6.49Q165.12 6.49 166.13 6.35 167.13 6.2 167.86 5.86 168.59 5.52 169.02 4.94 169.45 4.37 169.45 3.49L169.45 3.49Q169.45 2.81 169.15 2.4 168.86 2 168.35 1.78 167.83 1.56 167.14 1.5 166.44 1.44 165.64 1.44L165.64 1.44Q165.3 1.44 164.93 1.45 164.56 1.46 164.2 1.46L164.2 1.46 163.42 1.46Q162.29 1.46 161.18 1.43 160.07 1.39 159.05 1.22 158.02 1.05 157.14 0.72 156.26 0.39 155.61-0.18 154.97-0.76 154.59-1.62 154.21-2.49 154.21-3.71L154.21-3.71Q154.21-4.91 154.68-6.14 155.14-7.37 155.85-8.59L155.85-8.59Q155.19-9.03 154.54-9.74 153.89-10.45 153.39-11.41 152.89-12.38 152.59-13.6 152.28-14.82 152.28-16.33L152.28-16.33Q152.28-18.63 153-20.4 153.72-22.17 155.04-23.41L155.04-23.41Q155.82-24.15 156.8-24.63 157.78-25.12 158.85-25.42 159.92-25.71 161.07-25.83 162.22-25.95 163.32-25.95L163.32-25.95Q164.71-25.95 165.93-25.79 167.15-25.63 168.08-25.42L168.08-25.42ZM163.42-21.44L163.42-21.44Q161.27-21.44 160.02-20.14 158.78-18.85 158.78-16.33L158.78-16.33Q158.78-13.75 160.03-12.49 161.29-11.23 163.42-11.23L163.42-11.23Q165.56-11.23 166.81-12.52 168.05-13.82 168.05-16.33L168.05-16.33Q168.05-18.87 166.77-20.15 165.49-21.44 163.42-21.44Z" opacity="1" transform="matrix(1,0,0,1,0,0)" fill="#000000" class="wordmark-text-0" data-fill-palette-color="quaternary" id="text-0"></path></svg></g></svg></g><g transform="matrix(1,0,0,1,0,69.68735976209736)"><svg viewBox="0 0 213.1584412271571 18.082655272109754" height="18.082655272109754" width="213.1584412271571"><g transform="matrix(1,0,0,1,0,0)"><svg width="213.1584412271571" viewBox="1.66 -39.5 619 52.51" height="18.082655272109754" data-palette-color="#000000"><path d="M27.71-9.01L27.71-9.01Q27.71-7.15 27.17-5.71 26.64-4.27 25.71-3.21 24.78-2.15 23.51-1.43 22.24-0.71 20.79-0.27 19.34 0.17 17.75 0.37 16.16 0.56 14.6 0.56L14.6 0.56Q12.5 0.56 10.89 0.29 9.28 0.02 7.81-0.57 6.35-1.17 4.9-2.12 3.44-3.08 1.66-4.44L1.66-4.44 6.47-8.37Q7.13-7.13 8.22-6.12 9.3-5.1 10.47-4.37 11.65-3.64 12.74-3.25 13.84-2.86 14.53-2.86L14.53-2.86Q15.09-2.86 15.8-2.89 16.5-2.93 17.24-3.04 17.97-3.15 18.68-3.37 19.38-3.59 19.93-3.97 20.48-4.35 20.81-4.92 21.14-5.49 21.14-6.3L21.14-6.3Q21.14-7.13 20.72-7.75 20.29-8.37 19.6-8.84 18.92-9.3 18.04-9.62 17.16-9.94 16.27-10.18 15.38-10.42 14.55-10.61 13.72-10.79 13.11-10.96L13.11-10.96Q11.99-11.28 10.74-11.61 9.5-11.94 8.28-12.37 7.06-12.79 5.94-13.38 4.83-13.96 3.99-14.78 3.15-15.6 2.65-16.71 2.15-17.82 2.15-19.31L2.15-19.31Q2.15-22.05 3.23-23.89 4.32-25.73 6.1-26.84 7.89-27.95 10.16-28.42 12.43-28.88 14.77-28.88L14.77-28.88Q16.38-28.88 18.16-28.55 19.95-28.22 21.63-27.58 23.32-26.93 24.78-26 26.25-25.07 27.22-23.88L27.22-23.88 22.41-19.92Q21.88-21.39 21.01-22.44 20.14-23.49 19.13-24.16 18.12-24.83 17.05-25.15 15.99-25.46 15.09-25.46L15.09-25.46Q14.21-25.46 13.11-25.39 12.01-25.32 11.05-24.98 10.08-24.63 9.41-23.94 8.74-23.24 8.74-22.02L8.74-22.02Q8.74-21.14 9.14-20.52 9.55-19.9 10.21-19.45 10.86-18.99 11.71-18.69 12.55-18.38 13.43-18.15 14.31-17.92 15.14-17.75 15.97-17.58 16.63-17.38L16.63-17.38Q17.75-17.07 19.01-16.74 20.26-16.41 21.48-15.98 22.71-15.55 23.84-14.98 24.98-14.4 25.83-13.57 26.68-12.74 27.2-11.63 27.71-10.52 27.71-9.01ZM61.74-16.16L61.74-16.16Q61.74-13.31 61.04-10.21 60.35-7.1 59.1-4.13 57.86-1.15 56.13 1.48 54.39 4.1 52.32 6.01L52.32 6.01 49.22 4.32Q49.88 3.1 50.46 1.59 51.05 0.07 51.52-1.62 52-3.32 52.38-5.13 52.76-6.93 53.01-8.7 53.27-10.47 53.4-12.15 53.54-13.82 53.54-15.26L53.54-15.26Q53.54-16.21 53.46-17.3 53.39-18.38 53.16-19.47 52.93-20.56 52.54-21.56 52.15-22.56 51.5-23.32 50.85-24.07 49.94-24.54 49.02-25 47.78-25L47.78-25Q46.56-25 45.6-24.45 44.65-23.9 43.92-23.01 43.19-22.12 42.66-20.97 42.14-19.82 41.81-18.62 41.48-17.41 41.33-16.24 41.18-15.06 41.18-14.14L41.18-14.14 41.18 0 32.91 0 32.91-38.57 41.16-38.57 41.16-24.05Q42.75-26.37 45.05-27.62 47.36-28.88 50.17-28.88L50.17-28.88Q53.1-28.88 55.27-27.93 57.44-26.98 58.88-25.28 60.32-23.58 61.03-21.25 61.74-18.92 61.74-16.16ZM65.74-12.06L65.74-12.06Q65.74-13.99 66.07-16.06 66.4-18.14 67.02-20.21 67.65-22.29 68.53-24.32 69.4-26.34 70.5-28.2L70.5-28.2 76.53-28.2Q75.92-26.37 75.45-24.38 74.97-22.39 74.64-20.4 74.31-18.41 74.13-16.5 73.95-14.6 73.95-12.96L73.95-12.96Q73.95-12.01 74.03-10.93 74.12-9.84 74.34-8.75 74.56-7.67 74.96-6.67 75.36-5.66 76-4.9 76.63-4.13 77.55-3.67 78.46-3.22 79.71-3.22L79.71-3.22Q80.93-3.22 81.89-3.77 82.86-4.32 83.59-5.21 84.32-6.1 84.83-7.25 85.35-8.4 85.68-9.61 86.01-10.82 86.16-11.98 86.32-13.13 86.32-14.06L86.32-14.06 86.32-28.2 94.58-28.2 94.58 0 91.4 0 87.62-6.57Q86.91-4.93 85.9-3.6 84.88-2.27 83.59-1.32 82.29-0.37 80.72 0.15 79.15 0.66 77.31 0.66L77.31 0.66Q74.38 0.66 72.21-0.29 70.04-1.25 68.6-2.93 67.16-4.61 66.45-6.95 65.74-9.28 65.74-12.06ZM145.09-16.46L145.09-16.46Q145.09-13.55 144.4-10.4 143.72-7.25 142.49-4.26 141.25-1.27 139.52 1.39 137.79 4.05 135.66 6.01L135.66 6.01 132.56 4.32Q133.27 3.05 133.85 1.46 134.44-0.12 134.93-1.88 135.42-3.64 135.78-5.49 136.15-7.35 136.41-9.19 136.66-11.04 136.78-12.77 136.91-14.5 136.91-16.02L136.91-16.02Q136.91-16.87 136.86-17.87 136.81-18.87 136.65-19.87 136.49-20.87 136.17-21.79 135.86-22.71 135.31-23.43 134.76-24.15 133.94-24.57 133.12-25 131.97-25L131.97-25Q130.85-25 130.06-24.4 129.26-23.8 128.7-22.85 128.14-21.9 127.81-20.7 127.48-19.51 127.31-18.3 127.14-17.09 127.08-15.99 127.02-14.89 127.02-14.14L127.02-14.14 127.02 0 118.79 0 118.79-13.13Q118.79-13.99 118.82-15.2 118.84-16.41 118.75-17.72 118.67-19.04 118.44-20.35 118.21-21.66 117.7-22.68 117.2-23.71 116.35-24.35 115.5-25 114.2-25L114.2-25Q113.1-25 112.36-24.39 111.61-23.78 111.11-22.81 110.61-21.85 110.33-20.64 110.05-19.43 109.92-18.23 109.78-17.02 109.76-15.93 109.73-14.84 109.73-14.14L109.73-14.14 109.73 0 101.46 0 101.46-28.2 104.63-28.2 107.66-21.63Q108.68-25.05 110.89-26.97 113.1-28.88 116.76-28.88L116.76-28.88Q120.06-28.88 122.23-27.51 124.41-26.15 125.65-23.07L125.65-23.07Q126.36-24.41 127.23-25.49 128.09-26.56 129.16-27.32 130.22-28.08 131.51-28.48 132.81-28.88 134.37-28.88L134.37-28.88Q137.25-28.88 139.29-27.94 141.33-27 142.62-25.34 143.91-23.68 144.5-21.4 145.09-19.12 145.09-16.46ZM194.2-16.46L194.2-16.46Q194.2-13.55 193.52-10.4 192.84-7.25 191.6-4.26 190.37-1.27 188.64 1.39 186.9 4.05 184.78 6.01L184.78 6.01 181.68 4.32Q182.39 3.05 182.97 1.46 183.56-0.12 184.05-1.88 184.54-3.64 184.9-5.49 185.27-7.35 185.52-9.19 185.78-11.04 185.9-12.77 186.03-14.5 186.03-16.02L186.03-16.02Q186.03-16.87 185.98-17.87 185.93-18.87 185.77-19.87 185.61-20.87 185.29-21.79 184.98-22.71 184.43-23.43 183.88-24.15 183.06-24.57 182.24-25 181.09-25L181.09-25Q179.97-25 179.18-24.4 178.38-23.8 177.82-22.85 177.26-21.9 176.93-20.7 176.6-19.51 176.43-18.3 176.26-17.09 176.2-15.99 176.14-14.89 176.14-14.14L176.14-14.14 176.14 0 167.91 0 167.91-13.13Q167.91-13.99 167.93-15.2 167.96-16.41 167.87-17.72 167.79-19.04 167.56-20.35 167.32-21.66 166.82-22.68 166.32-23.71 165.47-24.35 164.61-25 163.32-25L163.32-25Q162.22-25 161.48-24.39 160.73-23.78 160.23-22.81 159.73-21.85 159.45-20.64 159.17-19.43 159.04-18.23 158.9-17.02 158.88-15.93 158.85-14.84 158.85-14.14L158.85-14.14 158.85 0 150.58 0 150.58-28.2 153.75-28.2 156.78-21.63Q157.8-25.05 160.01-26.97 162.22-28.88 165.88-28.88L165.88-28.88Q169.18-28.88 171.35-27.51 173.53-26.15 174.77-23.07L174.77-23.07Q175.48-24.41 176.34-25.49 177.21-26.56 178.27-27.32 179.34-28.08 180.63-28.48 181.92-28.88 183.49-28.88L183.49-28.88Q186.37-28.88 188.41-27.94 190.44-27 191.74-25.34 193.03-23.68 193.62-21.4 194.2-19.12 194.2-16.46ZM218.91-28.2L224.62-28.2 214.37-3.39Q212.61 0.85 210.45 5.02 208.29 9.18 205.77 13.01L205.77 13.01 202.55 11.06Q203.16 9.96 203.99 8.52 204.82 7.08 205.63 5.54 206.43 4 207.12 2.5 207.8 1 208.17-0.24L208.17-0.24 195.84-28.2 204.09-28.2 212.46-9.13 218.91-28.2ZM238.29-13.13L238.29 0 228.6 0 228.6-35.16 245.88-35.16Q248.32-35.16 250.6-34.58 252.87-34.01 254.61-32.78 256.36-31.54 257.39-29.59 258.43-27.64 258.43-24.85L258.43-24.85Q258.43-22.68 257.52-20.76 256.6-18.85 255.08-17.35 253.55-15.84 251.57-14.86 249.59-13.87 247.47-13.55L247.47-13.55Q248.42-11.94 249.46-10.5 250.5-9.06 251.56-7.8 252.62-6.54 253.67-5.48 254.72-4.42 255.67-3.54L255.67-3.54Q257.92-1.49 260.12 0L260.12 0 248.03 0Q246.57-1.39 245.25-3.34L245.25-3.34Q244.13-5 242.99-7.46 241.86-9.91 241.24-13.13L241.24-13.13 238.29-13.13ZM248.59-24.85L248.59-24.85Q248.59-28.39 246.87-30.05 245.15-31.71 241.71-31.71L241.71-31.71 238.29-31.71 238.29-16.46 241.71-16.46Q243.54-16.46 244.85-17.15 246.15-17.85 246.98-19.01 247.81-20.17 248.2-21.68 248.59-23.19 248.59-24.85ZM291.68-28.2L291.68 0 283.43 0 283.43-3.37Q281.96-1.37 279.9-0.4 277.84 0.56 275.37 0.56L275.37 0.56Q272.15 0.56 269.61-0.59 267.07-1.73 265.31-3.72 263.56-5.71 262.63-8.4 261.7-11.08 261.7-14.16L261.7-14.16Q261.7-17.24 262.63-19.92 263.56-22.61 265.31-24.6 267.07-26.59 269.61-27.73 272.15-28.88 275.37-28.88L275.37-28.88Q277.01-28.88 278.49-28.39 279.96-27.91 281.2-27.01 282.43-26.12 283.37-24.87 284.31-23.61 284.85-22.07L284.85-22.07 288.51-28.2 291.68-28.2ZM283.38-14.16L283.38-14.16Q283.38-15.26 283.27-16.48 283.16-17.7 282.89-18.9 282.62-20.09 282.15-21.18 281.67-22.27 280.93-23.11 280.18-23.95 279.13-24.44 278.08-24.93 276.69-24.93L276.69-24.93Q275.3-24.93 274.27-24.43 273.25-23.93 272.52-23.08 271.78-22.24 271.31-21.14 270.83-20.04 270.56-18.85 270.3-17.65 270.19-16.44 270.08-15.23 270.08-14.16L270.08-14.16Q270.08-13.09 270.19-11.87 270.3-10.64 270.56-9.45 270.83-8.25 271.31-7.15 271.78-6.05 272.52-5.21 273.25-4.37 274.27-3.87 275.3-3.37 276.69-3.37L276.69-3.37Q277.96-3.37 278.95-3.89 279.94-4.42 280.68-5.3 281.43-6.18 281.94-7.3 282.45-8.42 282.77-9.62 283.09-10.82 283.23-12 283.38-13.18 283.38-14.16ZM327.4-16.16L327.4-16.16Q327.4-13.31 326.7-10.21 326.01-7.1 324.76-4.13 323.52-1.15 321.78 1.48 320.05 4.1 317.97 6.01L317.97 6.01 314.87 4.32Q315.53 3.1 316.12 1.59 316.7 0.07 317.18-1.62 317.66-3.32 318.03-5.13 318.41-6.93 318.67-8.7 318.93-10.47 319.06-12.15 319.19-13.82 319.19-15.26L319.19-15.26Q319.19-16.21 319.12-17.3 319.05-18.38 318.82-19.47 318.58-20.56 318.19-21.56 317.8-22.56 317.16-23.32 316.51-24.07 315.59-24.54 314.68-25 313.43-25L313.43-25Q312.21-25 311.26-24.45 310.31-23.9 309.57-23.01 308.84-22.12 308.32-20.97 307.79-19.82 307.46-18.62 307.13-17.41 306.99-16.24 306.84-15.06 306.84-14.14L306.84-14.14 306.84 0 298.56 0 298.56-28.2 301.74-28.2 305.52-21.63Q306.21-23.27 307.23-24.61 308.26-25.95 309.55-26.9 310.84-27.86 312.42-28.37 313.99-28.88 315.82-28.88L315.82-28.88Q318.75-28.88 320.93-27.93 323.1-26.98 324.54-25.28 325.98-23.58 326.69-21.25 327.4-18.92 327.4-16.16ZM341.55-35.01L341.55-35.01Q341.55-34.08 341.2-33.25 340.85-32.42 340.24-31.81 339.63-31.2 338.81-30.85 337.99-30.49 337.06-30.49L337.06-30.49Q336.13-30.49 335.3-30.85 334.47-31.2 333.86-31.81 333.25-32.42 332.9-33.25 332.55-34.08 332.55-35.01L332.55-35.01Q332.55-35.94 332.9-36.76 333.25-37.57 333.86-38.18 334.47-38.79 335.3-39.15 336.13-39.5 337.06-39.5L337.06-39.5Q337.99-39.5 338.81-39.15 339.63-38.79 340.24-38.18 340.85-37.57 341.2-36.76 341.55-35.94 341.55-35.01ZM341.19-28.2L341.19-8.15Q341.19-5.25 340.46-2.26 339.72 0.73 338.39 3.53 337.06 6.32 335.22 8.78 333.38 11.23 331.15 13.01L331.15 13.01 327.93 11.06Q329.18 9.35 330.1 7.19 331.03 5.03 331.65 2.71 332.28 0.39 332.59-1.97 332.91-4.32 332.91-6.45L332.91-6.45 332.91-28.2 341.19-28.2ZM376.37-28.2L376.37 0 368.11 0 368.11-3.37Q366.65-1.37 364.59-0.4 362.52 0.56 360.06 0.56L360.06 0.56Q356.84 0.56 354.3-0.59 351.76-1.73 350-3.72 348.24-5.71 347.31-8.4 346.39-11.08 346.39-14.16L346.39-14.16Q346.39-17.24 347.31-19.92 348.24-22.61 350-24.6 351.76-26.59 354.3-27.73 356.84-28.88 360.06-28.88L360.06-28.88Q361.69-28.88 363.17-28.39 364.65-27.91 365.88-27.01 367.11-26.12 368.05-24.87 368.99-23.61 369.53-22.07L369.53-22.07 373.19-28.2 376.37-28.2ZM368.07-14.16L368.07-14.16Q368.07-15.26 367.96-16.48 367.85-17.7 367.58-18.9 367.31-20.09 366.83-21.18 366.36-22.27 365.61-23.11 364.87-23.95 363.82-24.44 362.77-24.93 361.38-24.93L361.38-24.93Q359.98-24.93 358.96-24.43 357.93-23.93 357.2-23.08 356.47-22.24 355.99-21.14 355.52-20.04 355.25-18.85 354.98-17.65 354.87-16.44 354.76-15.23 354.76-14.16L354.76-14.16Q354.76-13.09 354.87-11.87 354.98-10.64 355.25-9.45 355.52-8.25 355.99-7.15 356.47-6.05 357.2-5.21 357.93-4.37 358.96-3.87 359.98-3.37 361.38-3.37L361.38-3.37Q362.65-3.37 363.63-3.89 364.62-4.42 365.37-5.3 366.11-6.18 366.63-7.3 367.14-8.42 367.46-9.62 367.77-10.82 367.92-12 368.07-13.18 368.07-14.16ZM412.08-16.16L412.08-16.16Q412.08-13.31 411.39-10.21 410.69-7.1 409.45-4.13 408.2-1.15 406.47 1.48 404.73 4.1 402.66 6.01L402.66 6.01 399.56 4.32Q400.22 3.1 400.8 1.59 401.39 0.07 401.86-1.62 402.34-3.32 402.72-5.13 403.1-6.93 403.35-8.7 403.61-10.47 403.74-12.15 403.88-13.82 403.88-15.26L403.88-15.26Q403.88-16.21 403.81-17.3 403.73-18.38 403.5-19.47 403.27-20.56 402.88-21.56 402.49-22.56 401.84-23.32 401.19-24.07 400.28-24.54 399.36-25 398.12-25L398.12-25Q396.9-25 395.94-24.45 394.99-23.9 394.26-23.01 393.53-22.12 393-20.97 392.48-19.82 392.15-18.62 391.82-17.41 391.67-16.24 391.53-15.06 391.53-14.14L391.53-14.14 391.53 0 383.25 0 383.25-28.2 386.42-28.2 390.21-21.63Q390.89-23.27 391.92-24.61 392.94-25.95 394.24-26.9 395.53-27.86 397.1-28.37 398.68-28.88 400.51-28.88L400.51-28.88Q403.44-28.88 405.61-27.93 407.79-26.98 409.23-25.28 410.67-23.58 411.37-21.25 412.08-18.92 412.08-16.16ZM446.87-10.74L446.87-10.74Q446.87-8.47 446.3-6.74 445.72-5 444.68-3.74 443.65-2.47 442.23-1.61 440.81-0.76 439.14-0.24 437.47 0.27 435.6 0.49 433.73 0.71 431.81 0.71L431.81 0.71Q429.27 0.71 427.12 0.33 424.97-0.05 423.08-0.87 421.19-1.68 419.44-2.98 417.69-4.27 415.96-6.13L415.96-6.13 420.94-11.18Q421.63-9.5 422.82-8.07 424.02-6.64 425.45-5.62 426.87-4.59 428.41-4 429.95-3.42 431.32-3.42L431.32-3.42Q432.93-3.42 434.35-3.65 435.76-3.88 436.81-4.42 437.86-4.96 438.46-5.85 439.06-6.74 439.06-8.08L439.06-8.08Q439.06-9.11 438.59-9.84 438.13-10.57 437.38-11.1 436.64-11.62 435.69-11.99 434.74-12.35 433.75-12.61 432.76-12.87 431.81-13.07 430.85-13.28 430.12-13.5L430.12-13.5Q428.68-13.92 427.12-14.39 425.56-14.87 424.04-15.48 422.53-16.09 421.17-16.88 419.82-17.68 418.79-18.76 417.77-19.85 417.16-21.28 416.55-22.71 416.55-24.56L416.55-24.56Q416.55-26.78 417.1-28.5 417.65-30.22 418.65-31.49 419.65-32.76 421.01-33.63 422.38-34.5 424.02-35.02 425.65-35.55 427.5-35.78 429.34-36.01 431.27-36.01L431.27-36.01Q433.91-36.01 436.07-35.52 438.23-35.03 440.06-34.13 441.89-33.23 443.41-31.97 444.94-30.71 446.28-29.17L446.28-29.17 441.3-24.12Q440.72-25.88 439.68-27.29 438.64-28.71 437.37-29.72 436.1-30.74 434.71-31.29 433.32-31.84 432.03-31.84L432.03-31.84Q430.34-31.84 428.93-31.6 427.51-31.37 426.5-30.85 425.48-30.32 424.92-29.43 424.36-28.54 424.36-27.22L424.36-27.22Q424.36-26.17 424.77-25.44 425.19-24.71 425.89-24.19 426.58-23.68 427.46-23.35 428.34-23.02 429.28-22.78 430.22-22.53 431.13-22.35 432.05-22.17 432.81-21.95L432.81-21.95Q434.27-21.53 435.88-21.07 437.49-20.61 439.06-19.98 440.62-19.36 442.04-18.55 443.45-17.75 444.53-16.64 445.6-15.53 446.23-14.07 446.87-12.62 446.87-10.74ZM480.9-16.16L480.9-16.16Q480.9-13.31 480.2-10.21 479.51-7.1 478.26-4.13 477.02-1.15 475.28 1.48 473.55 4.1 471.48 6.01L471.48 6.01 468.38 4.32Q469.03 3.1 469.62 1.59 470.21 0.07 470.68-1.62 471.16-3.32 471.54-5.13 471.92-6.93 472.17-8.7 472.43-10.47 472.56-12.15 472.7-13.82 472.7-15.26L472.7-15.26Q472.7-16.21 472.62-17.3 472.55-18.38 472.32-19.47 472.09-20.56 471.7-21.56 471.31-22.56 470.66-23.32 470.01-24.07 469.1-24.54 468.18-25 466.94-25L466.94-25Q465.71-25 464.76-24.45 463.81-23.9 463.08-23.01 462.35-22.12 461.82-20.97 461.3-19.82 460.97-18.62 460.64-17.41 460.49-16.24 460.34-15.06 460.34-14.14L460.34-14.14 460.34 0 452.07 0 452.07-38.57 460.32-38.57 460.32-24.05Q461.91-26.37 464.21-27.62 466.52-28.88 469.33-28.88L469.33-28.88Q472.26-28.88 474.43-27.93 476.6-26.98 478.04-25.28 479.48-23.58 480.19-21.25 480.9-18.92 480.9-16.16ZM514.74-28.2L514.74 0 506.48 0 506.48-3.37Q505.02-1.37 502.96-0.4 500.89 0.56 498.43 0.56L498.43 0.56Q495.2 0.56 492.67-0.59 490.13-1.73 488.37-3.72 486.61-5.71 485.68-8.4 484.76-11.08 484.76-14.16L484.76-14.16Q484.76-17.24 485.68-19.92 486.61-22.61 488.37-24.6 490.13-26.59 492.67-27.73 495.2-28.88 498.43-28.88L498.43-28.88Q500.06-28.88 501.54-28.39 503.02-27.91 504.25-27.01 505.48-26.12 506.42-24.87 507.36-23.61 507.9-22.07L507.9-22.07 511.56-28.2 514.74-28.2ZM506.43-14.16L506.43-14.16Q506.43-15.26 506.32-16.48 506.22-17.7 505.95-18.9 505.68-20.09 505.2-21.18 504.73-22.27 503.98-23.11 503.24-23.95 502.19-24.44 501.14-24.93 499.75-24.93L499.75-24.93Q498.35-24.93 497.33-24.43 496.3-23.93 495.57-23.08 494.84-22.24 494.36-21.14 493.89-20.04 493.62-18.85 493.35-17.65 493.24-16.44 493.13-15.23 493.13-14.16L493.13-14.16Q493.13-13.09 493.24-11.87 493.35-10.64 493.62-9.45 493.89-8.25 494.36-7.15 494.84-6.05 495.57-5.21 496.3-4.37 497.33-3.87 498.35-3.37 499.75-3.37L499.75-3.37Q501.01-3.37 502-3.89 502.99-4.42 503.74-5.3 504.48-6.18 504.99-7.3 505.51-8.42 505.82-9.62 506.14-10.82 506.29-12 506.43-13.18 506.43-14.16ZM550.45-16.16L550.45-16.16Q550.45-13.31 549.75-10.21 549.06-7.1 547.81-4.13 546.57-1.15 544.84 1.48 543.1 4.1 541.03 6.01L541.03 6.01 537.93 4.32Q538.59 3.1 539.17 1.59 539.76 0.07 540.23-1.62 540.71-3.32 541.09-5.13 541.47-6.93 541.72-8.7 541.98-10.47 542.11-12.15 542.25-13.82 542.25-15.26L542.25-15.26Q542.25-16.21 542.17-17.3 542.1-18.38 541.87-19.47 541.64-20.56 541.25-21.56 540.86-22.56 540.21-23.32 539.56-24.07 538.65-24.54 537.73-25 536.49-25L536.49-25Q535.27-25 534.31-24.45 533.36-23.9 532.63-23.01 531.9-22.12 531.37-20.97 530.85-19.82 530.52-18.62 530.19-17.41 530.04-16.24 529.89-15.06 529.89-14.14L529.89-14.14 529.89 0 521.62 0 521.62-28.2 524.79-28.2 528.58-21.63Q529.26-23.27 530.28-24.61 531.31-25.95 532.6-26.9 533.9-27.86 535.47-28.37 537.05-28.88 538.88-28.88L538.88-28.88Q541.81-28.88 543.98-27.93 546.15-26.98 547.59-25.28 549.03-23.58 549.74-21.25 550.45-18.92 550.45-16.16ZM585.68-14.16L585.68-14.16Q585.68-11.96 585.09-10.03 584.51-8.11 583.47-6.47 582.43-4.83 580.97-3.53 579.5-2.22 577.76-1.32 576.01-0.42 574.02 0.07 572.03 0.56 569.93 0.56L569.93 0.56Q567.83 0.56 565.85 0.07 563.88-0.42 562.13-1.32 560.38-2.22 558.92-3.53 557.46-4.83 556.42-6.47 555.38-8.11 554.79-10.05 554.21-11.99 554.21-14.16L554.21-14.16Q554.21-16.33 554.79-18.27 555.38-20.21 556.42-21.85 557.46-23.49 558.92-24.79 560.38-26.1 562.13-27 563.88-27.91 565.85-28.39 567.83-28.88 569.93-28.88L569.93-28.88Q572.03-28.88 574.02-28.39 576.01-27.91 577.76-27 579.5-26.1 580.97-24.79 582.43-23.49 583.47-21.85 584.51-20.21 585.09-18.27 585.68-16.33 585.68-14.16ZM577.28-14.16L577.28-14.16Q577.28-15.33 577.15-16.64 577.01-17.94 576.69-19.2 576.38-20.46 575.83-21.62 575.28-22.78 574.47-23.65 573.67-24.51 572.54-25.04 571.42-25.56 569.93-25.56L569.93-25.56Q568.51-25.56 567.42-25.02 566.32-24.49 565.5-23.6 564.68-22.71 564.13-21.53 563.58-20.36 563.24-19.1 562.9-17.85 562.75-16.56 562.61-15.28 562.61-14.16L562.61-14.16Q562.61-13.04 562.75-11.76 562.9-10.47 563.24-9.2 563.58-7.93 564.13-6.77 564.68-5.62 565.5-4.72 566.32-3.83 567.42-3.3 568.51-2.76 569.93-2.76L569.93-2.76Q571.4-2.76 572.52-3.28 573.64-3.81 574.46-4.69 575.28-5.57 575.81-6.71 576.35-7.86 576.68-9.13 577.01-10.4 577.15-11.69 577.28-12.99 577.28-14.16ZM620.66-14.16L620.66-14.16Q620.66-11.96 620.07-10.03 619.49-8.11 618.45-6.47 617.41-4.83 615.95-3.53 614.48-2.22 612.74-1.32 610.99-0.42 609 0.07 607.01 0.56 604.91 0.56L604.91 0.56Q602.81 0.56 600.84 0.07 598.86-0.42 597.11-1.32 595.37-2.22 593.9-3.53 592.44-4.83 591.4-6.47 590.36-8.11 589.78-10.05 589.19-11.99 589.19-14.16L589.19-14.16Q589.19-16.33 589.78-18.27 590.36-20.21 591.4-21.85 592.44-23.49 593.9-24.79 595.37-26.1 597.11-27 598.86-27.91 600.84-28.39 602.81-28.88 604.91-28.88L604.91-28.88Q607.01-28.88 609-28.39 610.99-27.91 612.74-27 614.48-26.1 615.95-24.79 617.41-23.49 618.45-21.85 619.49-20.21 620.07-18.27 620.66-16.33 620.66-14.16ZM612.26-14.16L612.26-14.16Q612.26-15.33 612.13-16.64 611.99-17.94 611.68-19.2 611.36-20.46 610.81-21.62 610.26-22.78 609.45-23.65 608.65-24.51 607.53-25.04 606.4-25.56 604.91-25.56L604.91-25.56Q603.5-25.56 602.4-25.02 601.3-24.49 600.48-23.6 599.66-22.71 599.12-21.53 598.57-20.36 598.22-19.1 597.88-17.85 597.74-16.56 597.59-15.28 597.59-14.16L597.59-14.16Q597.59-13.04 597.74-11.76 597.88-10.47 598.22-9.2 598.57-7.93 599.12-6.77 599.66-5.62 600.48-4.72 601.3-3.83 602.4-3.3 603.5-2.76 604.91-2.76L604.91-2.76Q606.38-2.76 607.5-3.28 608.62-3.81 609.44-4.69 610.26-5.57 610.8-6.71 611.33-7.86 611.66-9.13 611.99-10.4 612.13-11.69 612.26-12.99 612.26-14.16Z" opacity="1" transform="matrix(1,0,0,1,0,0)" fill="#000000" class="slogan-text-1" data-fill-palette-color="quaternary" id="text-1"></path></svg></g></svg></g></svg></g></svg></g><g transform="matrix(1,0,0,1,68.24097845059276,0)"><svg viewBox="0 0 76.6764843259716 76.41784128968278" height="76.41784128968278" width="76.6764843259716"><g><svg xmlns="http://www.w3.org/2000/svg" xmlns:xlink="http://www.w3.org/1999/xlink" version="1.1" x="0" y="0" viewBox="13.98 14.102 72.039 71.796" enable-background="new 0 0 100 100" xml:space="preserve" height="76.41784128968278" width="76.6764843259716" class="icon-icon-0" data-fill-palette-color="quaternary" id="icon-0"><g display="none" fill="#000000" data-fill-palette-color="quaternary"><path display="inline" d="M85.982 35.924H73.987v5.133H26.013v-5.133H14.018v35.982h13.288l-4.295 13.992h53.975L72.69 71.906h13.292V35.924zM76.985 65.961h-6.116l-1.245-4.049H30.377l-1.245 4.049h-6.121v-7.994h53.975V65.961z" fill="#000000" data-fill-palette-color="quaternary"></path><rect x="32.008" y="14.102" display="inline" width="35.979" height="23.658" fill="#000000" data-fill-palette-color="quaternary"></rect></g><g fill="#000000" data-fill-palette-color="quaternary"><path d="M73.041 56.455c0.332 0.023 0.664 0.049 0.998 0.049 6.613 0 11.98-5.361 11.98-11.979s-5.367-11.98-11.98-11.98c-0.334 0-0.666 0.023-0.998 0.051v-8.219H25.127v41.926h47.914V56.455zM74.039 36.541c4.41 0 7.988 3.58 7.988 7.984 0 4.402-3.578 7.986-7.988 7.986-0.338 0-0.666-0.059-0.998-0.102V36.643C73.373 36.598 73.701 36.541 74.039 36.541z" fill="#000000" data-fill-palette-color="quaternary"></path><rect x="13.98" y="71.631" width="71.871" height="3.992" fill="#000000" data-fill-palette-color="quaternary"></rect></g><g display="none" fill="#000000" data-fill-palette-color="quaternary"><polygon display="inline" points="14.018,78.984 85.982,78.984 85.982,31.01 38.008,31.01 38.008,21.016 14.018,21.016  " fill="#000000" data-fill-palette-color="quaternary"></polygon></g><g display="none" fill="#000000" data-fill-palette-color="quaternary"><polygon display="inline" points="85.982,26.013 14.018,26.013 50.002,50.002  " fill="#000000" data-fill-palette-color="quaternary"></polygon><polygon display="inline" points="53.329,54.989 50.002,57.207 46.676,54.989 14.018,33.22 14.018,73.987 85.982,73.987    85.982,33.22  " fill="#000000" data-fill-palette-color="quaternary"></polygon></g></svg></g></svg></g><g></g></svg></g></svg></g></svg></g></svg></g><defs></defs></svg><rect width="342.85155851775386" height="342.85155851775386" fill="none" stroke="none" visibility="hidden"></rect></g></svg></g></svg>